<mxfile host="app.diagrams.net" modified="2023-06-08T21:07:41.843Z" agent="Mozilla/5.0 (Windows NT 10.0; Win64; x64) AppleWebKit/537.36 (KHTML, like Gecko) Chrome/114.0.0.0 Safari/537.36" version="21.3.8" etag="RR3YzyNuih5doWmpYWFW" type="github">
  <diagram name="Strona-1" id="aEZkbCxlmvtyiFXAB47I">
    <mxGraphModel>
      <root>
        <mxCell id="0" />
        <mxCell id="1" parent="0" />
      </root>
    </mxGraphModel>
  </diagram>
</mxfile>
